<svg width="565" height="484" viewBox="0 0 565 484" fill="none" xmlns="http://www.w3.org/2000/svg">
<path d="M382.582 20.7237C382.582 20.7237 305.26 118.667 181.541 60.2465C57.8231 1.8263 -65.8934 159.906 40.6399 256.131C147.173 352.356 42.9224 405.231 115.298 464.203C197.558 531.23 269.174 395.313 334.469 426.242C478.579 494.505 585.341 467.482 561.285 388.44C519.058 249.692 465.06 240.666 506.299 168.497C547.539 96.3289 456.524 -53.7277 382.582 20.7237Z" fill="#DEE9FF"/>
<path d="M250.477 328.032C250.477 394.539 304.384 448.446 370.891 448.446C386.378 448.472 401.722 445.491 416.073 439.668C416.368 439.703 416.665 439.72 416.963 439.72H469.665C471.362 439.721 473.041 439.388 474.608 438.739C476.176 438.091 477.6 437.14 478.799 435.94C479.998 434.741 480.95 433.317 481.598 431.75C482.247 430.183 482.58 428.503 482.579 426.807V373.091C488.367 358.775 491.33 343.474 491.305 328.032C491.305 261.525 437.398 207.618 370.891 207.618C304.384 207.618 250.477 261.525 250.477 328.032Z" fill="#A2BDFF"/>
<path d="M419.089 242.679C419.089 326.115 351.46 393.744 268.024 393.744C248.595 393.777 229.345 390.037 211.342 382.732C210.971 382.775 210.598 382.797 210.225 382.797H144.106C141.978 382.798 139.871 382.38 137.905 381.566C135.939 380.753 134.152 379.559 132.648 378.055C131.143 376.55 129.95 374.764 129.136 372.797C128.322 370.831 127.904 368.724 127.905 366.596V299.208C120.645 281.248 116.928 262.053 116.958 242.68C116.958 159.244 184.587 91.6158 268.023 91.6158C351.459 91.6158 419.089 159.243 419.089 242.679Z" fill="#062150"/>
<path d="M197.965 273.33C210.056 273.33 219.858 263.528 219.858 251.437C219.858 239.345 210.056 229.543 197.965 229.543C185.874 229.543 176.072 239.345 176.072 251.437C176.072 263.528 185.874 273.33 197.965 273.33Z" fill="white"/>
<path d="M261.454 273.33C273.545 273.33 283.347 263.528 283.347 251.437C283.347 239.345 273.545 229.543 261.454 229.543C249.363 229.543 239.561 239.345 239.561 251.437C239.561 263.528 249.363 273.33 261.454 273.33Z" fill="white"/>
<path d="M327.136 273.33C339.227 273.33 349.029 263.528 349.029 251.437C349.029 239.345 339.227 229.543 327.136 229.543C315.045 229.543 305.243 239.345 305.243 251.437C305.243 263.528 315.045 273.33 327.136 273.33Z" fill="white"/>
<path d="M395.004 170.431C416.769 170.431 434.412 152.787 434.412 131.023C434.412 109.258 416.769 91.6146 395.004 91.6146C373.24 91.6146 355.596 109.258 355.596 131.023C355.596 152.787 373.24 170.431 395.004 170.431Z" fill="#062150" stroke="white" stroke-width="15" stroke-miterlimit="10"/>
<path d="M407.53 119.343C407.011 117.339 406.08 115.465 404.796 113.841C403.663 112.473 402.193 111.424 400.531 110.797C396.945 109.56 393.048 109.56 389.462 110.797C387.803 111.42 386.337 112.47 385.214 113.841C383.917 115.457 382.984 117.334 382.479 119.343C381.788 122.049 381.465 124.836 381.518 127.628V134.27C381.462 137.069 381.791 139.862 382.495 142.572C383.006 144.597 383.944 146.489 385.246 148.122C386.377 149.504 387.846 150.57 389.511 151.215C393.078 152.496 396.98 152.496 400.547 151.215C402.202 150.569 403.661 149.503 404.779 148.122C406.061 146.481 406.987 144.591 407.498 142.572C408.188 139.86 408.511 137.067 408.458 134.27H408.491V127.628C408.545 124.836 408.222 122.049 407.53 119.343ZM401.589 135.262C401.611 137.035 401.47 138.806 401.166 140.553C400.96 141.795 400.536 142.991 399.913 144.085C399.433 144.929 398.721 145.618 397.862 146.071C396.979 146.496 396.009 146.708 395.03 146.689C394.05 146.704 393.081 146.492 392.197 146.071C391.327 145.616 390.6 144.928 390.097 144.085C389.46 142.992 389.019 141.797 388.794 140.553C388.462 138.809 388.309 137.037 388.339 135.262V126.57C388.31 124.802 388.457 123.035 388.778 121.296C388.992 120.077 389.428 118.907 390.064 117.845C390.569 117.034 391.291 116.38 392.148 115.957C393.036 115.571 393.995 115.371 394.964 115.371C395.933 115.371 396.891 115.571 397.78 115.957C398.644 116.369 399.368 117.026 399.863 117.845C400.499 118.907 400.935 120.077 401.149 121.296C401.471 123.035 401.618 124.802 401.589 126.57V135.263L401.589 135.262Z" fill="white"/>
</svg>
