<svg width="88" height="88" viewBox="0 0 88 88" fill="none" xmlns="http://www.w3.org/2000/svg">
<path fill-rule="evenodd" clip-rule="evenodd" d="M21.898 80.8926C9.37798 73.3758 1 59.6663 1 44C1 20.2518 20.2518 1 44 1C67.7482 1 87 20.2518 87 44C87 67.7482 67.7482 87 44 87C35.979 87 28.4709 84.8038 22.0443 80.98H21.898V80.8926ZM42.538 45.376V84.1359C39.9148 84.042 37.3556 83.6966 34.884 83.1229L34.884 52.686L4.77976 52.686C4.25831 50.3208 3.94535 47.8774 3.86113 45.376H42.538ZM10.1813 65.672C13.2159 70.3976 17.2139 74.4457 21.898 77.5387L21.898 65.672H10.1813ZM5.51582 55.524C6.27908 58.0766 7.28935 60.5225 8.51891 62.834H24.736L24.736 79.249C27.0443 80.5132 29.4904 81.5573 32.046 82.353L32.046 55.524L5.51582 55.524ZM45.376 45.376V84.1389C47.7563 84.0587 50.0842 83.7715 52.342 83.2945L52.342 52.686L83.2202 52.686C83.7417 50.3208 84.0547 47.8774 84.1389 45.376H45.376ZM55.18 55.524L55.18 82.5854C57.7302 81.8477 60.176 80.8641 62.49 79.6619L62.49 62.834H79.4811C80.7107 60.5225 81.7209 58.0766 82.4842 55.524L55.18 55.524ZM65.328 65.672V78.0372C70.3463 74.8861 74.6183 70.6559 77.8187 65.672H65.328ZM84.1359 42.538H45.376V3.86113C47.8774 3.94535 50.3208 4.25831 52.686 4.77976V35.228L83.2012 35.228C83.728 37.5928 84.0464 40.0363 84.1359 42.538ZM55.524 5.51582V32.39H82.4584C81.6887 29.8368 80.6717 27.3909 79.4352 25.08H62.834V8.51891C60.5225 7.28935 58.0766 6.27908 55.524 5.51582ZM65.672 10.1813C70.5129 13.2899 74.6427 17.4095 77.7634 22.242H65.672V10.1813ZM42.538 42.538H3.86412C3.95363 40.0363 4.27197 37.5928 4.79882 35.228L35.228 35.228L35.228 4.79882C37.5928 4.27197 40.0363 3.95363 42.538 3.86412V42.538ZM5.54164 32.39L32.39 32.39L32.39 5.54164C29.8368 6.31135 27.3909 7.32835 25.08 8.56479L25.08 25.08H8.56479C7.32834 27.3909 6.31135 29.8368 5.54164 32.39ZM22.242 10.2366L22.242 22.242L10.2366 22.242C13.3388 17.4382 17.4382 13.3388 22.242 10.2366Z" fill="#EBA944" stroke="#EBA944"/>
</svg>
