<svg width="172" height="60" viewBox="0 0 172 60" fill="none" xmlns="http://www.w3.org/2000/svg">
<path d="M29.5308 30.5363H46.7151C47.2235 30.5363 47.4608 30.7736 47.4608 31.282V34.6036C47.4608 35.1121 47.2235 35.3832 46.7151 35.3832H29.7341C26.243 35.3832 25.2262 36.4 25.2262 39.9928V44.8736C25.2262 48.4664 26.243 49.5171 29.7341 49.5171H40.9192C42.1055 49.5171 42.6139 48.9748 42.6139 47.4495V44.7041C42.6139 44.3991 42.5122 44.2635 42.2072 44.2635H32.2762C31.8017 44.2635 31.5305 43.9923 31.5305 43.4839V40.9419C31.5305 40.4334 31.8017 40.1623 32.2762 40.1623H46.4101C47.088 40.1623 47.4269 40.5012 47.4269 41.1791V49.0765C47.4269 52.8726 45.9356 54.2623 43.224 54.2623H29.5308C22.6842 54.2623 20.0404 51.8219 20.0404 45.3142V39.4844C20.0404 32.9767 22.6842 30.5363 29.5308 30.5363Z" fill="#1A335E"/>
<path d="M60.401 30.5363H75.3144C75.8228 30.5363 76.094 30.7736 76.094 31.282V34.502C76.094 35.0104 75.8228 35.2476 75.3144 35.2476H60.5026C56.9776 35.2476 55.9947 36.2984 55.9947 39.8572V40.1962H75.1449C75.6533 40.1962 75.8906 40.4334 75.8906 40.9419V43.6195C75.8906 44.1279 75.6533 44.3652 75.1449 44.3652H55.9947V44.9414C55.9947 48.5003 56.9776 49.551 60.5026 49.551H75.3144C75.8228 49.551 76.094 49.7882 76.094 50.2967V53.5166C76.094 54.025 75.8228 54.2623 75.3144 54.2623H60.401C53.5543 54.2623 50.9106 51.8219 50.9106 45.3142V39.4844C50.9106 32.9767 53.5543 30.5363 60.401 30.5363Z" fill="#1A335E"/>
<path d="M78.5889 40.7724H88.791C89.1978 40.7724 89.4011 40.9758 89.4011 41.3825V43.8229C89.4011 44.2296 89.1978 44.433 88.791 44.433H78.5889C78.1822 44.433 77.9788 44.2296 77.9788 43.8229V41.3825C77.9788 40.9758 78.1822 40.7724 78.5889 40.7724Z" fill="#1A335E"/>
<path d="M87.8497 30.5363H114.321C114.829 30.5363 115.101 30.7736 115.101 31.282V34.6036C115.101 35.1121 114.829 35.3832 114.321 35.3832H103.678V53.5166C103.678 54.025 103.441 54.2623 102.933 54.2623H99.2381C98.7297 54.2623 98.4925 54.025 98.4925 53.5166V35.3832H87.8497C87.3413 35.3832 87.0701 35.1121 87.0701 34.6036V31.282C87.0701 30.7736 87.3413 30.5363 87.8497 30.5363Z" fill="#1A335E"/>
<path d="M126.168 30.5363H141.081C141.589 30.5363 141.861 30.7736 141.861 31.282V34.502C141.861 35.0104 141.589 35.2476 141.081 35.2476H126.269C122.744 35.2476 121.761 36.2984 121.761 39.8572V40.1962H140.912C141.42 40.1962 141.657 40.4334 141.657 40.9419V43.6195C141.657 44.1279 141.42 44.3652 140.912 44.3652H121.761V44.9414C121.761 48.5003 122.744 49.551 126.269 49.551H141.081C141.589 49.551 141.861 49.7882 141.861 50.2967V53.5166C141.861 54.025 141.589 54.2623 141.081 54.2623H126.168C119.321 54.2623 116.677 51.8219 116.677 45.3142V39.4844C116.677 32.9767 119.321 30.5363 126.168 30.5363Z" fill="#1A335E"/>
<path d="M154.456 30.5363H169.742C170.251 30.5363 170.488 30.7736 170.488 31.282V34.6036C170.488 35.1121 170.251 35.3832 169.742 35.3832H154.659C151.168 35.3832 150.151 36.4 150.151 39.9928V44.8058C150.151 48.3986 151.168 49.4493 154.659 49.4493H169.742C170.251 49.4493 170.488 49.6866 170.488 50.195V53.5166C170.488 54.025 170.251 54.2623 169.742 54.2623H154.456C147.609 54.2623 144.966 51.8219 144.966 45.3142V39.4844C144.966 32.9767 147.609 30.5363 154.456 30.5363Z" fill="#1A335E"/>
<path d="M1.25482 21.1326C1.25482 19.7252 2.39579 18.5842 3.80326 18.5842V18.5842V54.2623H1.25482V21.1326Z" fill="#1A335E"/>
<rect x="5.33234" y="18.5842" width="2.54843" height="35.6781" fill="#1A335E"/>
<rect x="9.40985" y="18.5842" width="2.54843" height="35.6781" fill="#1A335E"/>
<path d="M13.4873 18.5842V18.5842C14.8948 18.5842 16.0357 19.7252 16.0357 21.1326V54.2623H13.4873V18.5842Z" fill="#1A335E"/>
<line x1="21.6424" y1="23.7004" x2="172" y2="23.7005" stroke="#EBA944" stroke-width="2"/>
<line x1="21.6424" y1="58.614" x2="172" y2="58.614" stroke="#EBA944" stroke-width="2"/>
<path fill-rule="evenodd" clip-rule="evenodd" d="M4.71562 15.2047C2.48959 13.8683 1 11.4307 1 8.6453C1 4.42292 4.42292 1 8.6453 1C12.8677 1 16.2906 4.42292 16.2906 8.6453C16.2906 12.8677 12.8677 16.2906 8.6453 16.2906C7.21918 16.2906 5.88427 15.9001 4.74163 15.2203H4.71562V15.2047ZM8.38536 8.88995V15.7814C7.91896 15.7647 7.46395 15.7033 7.0245 15.6013L7.0245 10.1897L1.67203 10.1897C1.57932 9.76913 1.52368 9.3347 1.5087 8.88995H8.38536ZM2.63241 12.4985C3.17196 13.3387 3.88279 14.0585 4.71562 14.6084L4.71562 12.4985H2.63241ZM1.8029 10.6942C1.93861 11.1481 2.11823 11.583 2.33685 11.9939H5.22021L5.22021 14.9125C5.63062 15.1373 6.06553 15.3229 6.51991 15.4644L6.51991 10.6942L1.8029 10.6942ZM8.88995 8.88995V15.7819C9.31317 15.7677 9.72705 15.7166 10.1285 15.6318L10.1285 10.1897L15.6186 10.1897C15.7113 9.76913 15.7669 9.3347 15.7819 8.88995H8.88995ZM10.6331 10.6942L10.6331 15.5057C11.0865 15.3745 11.5214 15.1997 11.9328 14.9859L11.9328 11.9939H14.9538C15.1724 11.583 15.352 11.1481 15.4877 10.6942L10.6331 10.6942ZM12.4374 12.4985V14.697C13.3296 14.1368 14.0892 13.3847 14.6582 12.4985H12.4374ZM15.7814 8.38536H8.88995V1.5087C9.3347 1.52368 9.76913 1.57932 10.1897 1.67203V7.08566L15.6152 7.08566C15.7089 7.50612 15.7655 7.94056 15.7814 8.38536ZM10.6942 1.8029V6.58107H15.4831C15.3463 6.12713 15.1654 5.69224 14.9456 5.28137H11.9939V2.33685C11.583 2.11823 11.1481 1.93861 10.6942 1.8029ZM12.4985 2.63241C13.3592 3.18512 14.0935 3.91758 14.6483 4.77678H12.4985V2.63241ZM8.38536 8.38536H1.50923C1.52515 7.94056 1.58175 7.50612 1.67542 7.08566L7.08566 7.08566L7.08566 1.67542C7.50612 1.58175 7.94056 1.52515 8.38536 1.50923V8.38536ZM1.80749 6.58107L6.58107 6.58107L6.58107 1.80749C6.12713 1.94435 5.69224 2.12517 5.28137 2.345L5.28137 5.28137H2.345C2.12517 5.69224 1.94435 6.12713 1.80749 6.58107ZM4.77678 2.64226L4.77678 4.77678L2.64226 4.77678C3.1938 3.92267 3.92267 3.1938 4.77678 2.64226Z" fill="#EBA944" stroke="#EBA944"/>
</svg>
