<svg width="672" height="290" viewBox="0 0 672 290" fill="none" xmlns="http://www.w3.org/2000/svg">
<path d="M112.954 116.9H180.385C182.38 116.9 183.311 117.831 183.311 119.826V132.86C183.311 134.855 182.38 135.919 180.385 135.919H113.752C100.053 135.919 96.063 139.909 96.063 154.007V173.159C96.063 187.257 100.053 191.38 113.752 191.38H157.642C162.297 191.38 164.292 189.252 164.292 183.267V172.494C164.292 171.297 163.893 170.765 162.696 170.765H123.727C121.865 170.765 120.801 169.701 120.801 167.706V157.731C120.801 155.736 121.865 154.672 123.727 154.672H179.188C181.848 154.672 183.178 156.002 183.178 158.662V189.651C183.178 204.547 177.326 210 166.686 210H112.954C86.088 210 75.714 200.424 75.714 174.888V152.012C75.714 126.476 86.088 116.9 112.954 116.9ZM234.088 116.9H292.608C294.603 116.9 295.667 117.831 295.667 119.826V132.461C295.667 134.456 294.603 135.387 292.608 135.387H234.487C220.655 135.387 216.798 139.51 216.798 153.475V154.805H291.943C293.938 154.805 294.869 155.736 294.869 157.731V168.238C294.869 170.233 293.938 171.164 291.943 171.164H216.798V173.425C216.798 187.39 220.655 191.513 234.487 191.513H292.608C294.603 191.513 295.667 192.444 295.667 194.439V207.074C295.667 209.069 294.603 210 292.608 210H234.088C207.222 210 196.848 200.424 196.848 174.888V152.012C196.848 126.476 207.222 116.9 234.088 116.9ZM305.457 157.066H345.49C347.086 157.066 347.884 157.864 347.884 159.46V169.036C347.884 170.632 347.086 171.43 345.49 171.43H305.457C303.861 171.43 303.063 170.632 303.063 169.036V159.46C303.063 157.864 303.861 157.066 305.457 157.066ZM341.796 116.9H445.669C447.664 116.9 448.728 117.831 448.728 119.826V132.86C448.728 134.855 447.664 135.919 445.669 135.919H403.907V207.074C403.907 209.069 402.976 210 400.981 210H386.484C384.489 210 383.558 209.069 383.558 207.074V135.919H341.796C339.801 135.919 338.737 134.855 338.737 132.86V119.826C338.737 117.831 339.801 116.9 341.796 116.9ZM492.155 116.9H550.675C552.67 116.9 553.734 117.831 553.734 119.826V132.461C553.734 134.456 552.67 135.387 550.675 135.387H492.554C478.722 135.387 474.865 139.51 474.865 153.475V154.805H550.01C552.005 154.805 552.936 155.736 552.936 157.731V168.238C552.936 170.233 552.005 171.164 550.01 171.164H474.865V173.425C474.865 187.39 478.722 191.513 492.554 191.513H550.675C552.67 191.513 553.734 192.444 553.734 194.439V207.074C553.734 209.069 552.67 210 550.675 210H492.155C465.289 210 454.915 200.424 454.915 174.888V152.012C454.915 126.476 465.289 116.9 492.155 116.9ZM603.158 116.9H663.141C665.136 116.9 666.067 117.831 666.067 119.826V132.86C666.067 134.855 665.136 135.919 663.141 135.919H603.956C590.257 135.919 586.267 139.909 586.267 154.007V172.893C586.267 186.991 590.257 191.114 603.956 191.114H663.141C665.136 191.114 666.067 192.045 666.067 194.04V207.074C666.067 209.069 665.136 210 663.141 210H603.158C576.292 210 565.918 200.424 565.918 174.888V152.012C565.918 126.476 576.292 116.9 603.158 116.9Z" fill="#EEF3ED"/>
<path d="M299.011 255.1H302.23L311.665 281H308.909L306.892 275.45H294.368L292.351 281H289.595L299.011 255.1ZM295.311 272.86H305.93L300.621 258.282L295.311 272.86ZM319.007 281V255.1H327.794C329.176 255.1 330.421 255.439 331.531 256.117C332.641 256.783 333.523 257.69 334.177 258.837C334.831 259.972 335.157 261.248 335.157 262.666C335.157 263.937 334.898 265.09 334.38 266.126C333.862 267.162 333.153 268.019 332.253 268.697C331.365 269.376 330.36 269.826 329.237 270.048L335.564 281H332.567L326.333 270.251H321.597V281H319.007ZM321.597 267.661H327.572C328.485 267.661 329.318 267.439 330.07 266.995C330.835 266.539 331.439 265.929 331.883 265.164C332.339 264.387 332.567 263.511 332.567 262.537C332.567 261.563 332.339 260.693 331.883 259.928C331.439 259.151 330.835 258.541 330.07 258.097C329.318 257.641 328.485 257.412 327.572 257.412H321.597V267.661ZM368.285 281.481C366.534 281.481 364.888 281.136 363.346 280.445C361.804 279.742 360.448 278.78 359.276 277.559C358.117 276.326 357.204 274.895 356.538 273.267C355.884 271.639 355.557 269.9 355.557 268.05C355.557 266.2 355.884 264.461 356.538 262.833C357.204 261.205 358.117 259.78 359.276 258.559C360.448 257.326 361.804 256.364 363.346 255.673C364.888 254.97 366.534 254.619 368.285 254.619C370.382 254.619 372.312 255.106 374.076 256.08C375.84 257.055 377.301 258.35 378.46 259.965L376.166 261.205C375.254 259.984 374.094 259.016 372.688 258.3C371.295 257.573 369.827 257.209 368.285 257.209C366.867 257.209 365.541 257.499 364.308 258.078C363.087 258.646 362.014 259.429 361.089 260.428C360.164 261.427 359.442 262.58 358.924 263.887C358.406 265.195 358.147 266.582 358.147 268.05C358.147 269.542 358.406 270.942 358.924 272.249C359.455 273.557 360.182 274.71 361.107 275.709C362.045 276.708 363.124 277.491 364.345 278.058C365.578 278.613 366.892 278.891 368.285 278.891C369.889 278.891 371.375 278.527 372.744 277.799C374.125 277.059 375.266 276.097 376.166 274.913L378.46 276.153C377.301 277.769 375.84 279.064 374.076 280.038C372.312 281 370.382 281.481 368.285 281.481ZM398.115 281.481C396.363 281.481 394.717 281.136 393.175 280.445C391.634 279.742 390.277 278.774 389.105 277.54C387.934 276.307 387.015 274.883 386.349 273.267C385.683 271.639 385.35 269.9 385.35 268.05C385.35 266.2 385.683 264.467 386.349 262.851C387.015 261.223 387.934 259.793 389.105 258.559C390.277 257.326 391.634 256.364 393.175 255.673C394.717 254.97 396.363 254.619 398.115 254.619C399.878 254.619 401.531 254.97 403.073 255.673C404.614 256.364 405.971 257.326 407.143 258.559C408.314 259.793 409.227 261.223 409.881 262.851C410.547 264.467 410.88 266.2 410.88 268.05C410.88 269.9 410.547 271.639 409.881 273.267C409.227 274.883 408.314 276.307 407.143 277.54C405.971 278.774 404.614 279.742 403.073 280.445C401.531 281.136 399.878 281.481 398.115 281.481ZM398.115 278.891C399.533 278.891 400.853 278.607 402.074 278.04C403.307 277.46 404.386 276.671 405.311 275.672C406.249 274.673 406.976 273.52 407.494 272.212C408.025 270.905 408.29 269.518 408.29 268.05C408.29 266.57 408.025 265.176 407.494 263.869C406.964 262.549 406.23 261.396 405.293 260.409C404.368 259.41 403.289 258.627 402.055 258.06C400.834 257.493 399.521 257.209 398.115 257.209C396.696 257.209 395.371 257.499 394.137 258.078C392.916 258.646 391.837 259.429 390.9 260.428C389.975 261.427 389.247 262.58 388.717 263.887C388.199 265.195 387.94 266.582 387.94 268.05C387.94 269.542 388.205 270.942 388.735 272.249C389.266 273.557 389.993 274.71 390.918 275.709C391.856 276.708 392.935 277.491 394.156 278.058C395.389 278.613 396.709 278.891 398.115 278.891ZM418.52 281V255.1H421.332L435.003 276.319V255.1H437.593V281H434.8L421.11 259.78V281H418.52ZM445.927 281V255.1H454.493C456.281 255.1 457.958 255.439 459.525 256.117C461.091 256.783 462.466 257.715 463.65 258.911C464.834 260.095 465.759 261.47 466.425 263.036C467.103 264.59 467.443 266.262 467.443 268.05C467.443 269.838 467.103 271.516 466.425 273.082C465.759 274.636 464.834 276.011 463.65 277.207C462.466 278.391 461.091 279.323 459.525 280.001C457.958 280.667 456.281 281 454.493 281H445.927ZM448.517 278.41H454.493C455.923 278.41 457.261 278.145 458.507 277.614C459.765 277.072 460.869 276.326 461.819 275.376C462.768 274.426 463.508 273.329 464.039 272.083C464.581 270.825 464.853 269.481 464.853 268.05C464.853 266.619 464.581 265.281 464.039 264.035C463.508 262.777 462.762 261.674 461.8 260.724C460.85 259.774 459.753 259.034 458.507 258.504C457.261 257.961 455.923 257.69 454.493 257.69H448.517V278.41ZM475.299 281V255.1H477.889V281H475.299ZM498.747 281.481C496.995 281.481 495.349 281.136 493.807 280.445C492.265 279.742 490.909 278.78 489.737 277.559C488.578 276.326 487.665 274.895 486.999 273.267C486.345 271.639 486.019 269.9 486.019 268.05C486.019 266.2 486.345 264.461 486.999 262.833C487.665 261.205 488.578 259.78 489.737 258.559C490.909 257.326 492.265 256.364 493.807 255.673C495.349 254.97 496.995 254.619 498.747 254.619C500.843 254.619 502.773 255.106 504.537 256.08C506.301 257.055 507.762 258.35 508.922 259.965L506.628 261.205C505.715 259.984 504.556 259.016 503.15 258.3C501.756 257.573 500.288 257.209 498.747 257.209C497.328 257.209 496.002 257.499 494.769 258.078C493.548 258.646 492.475 259.429 491.55 260.428C490.625 261.427 489.904 262.58 489.386 263.887C488.868 265.195 488.609 266.582 488.609 268.05C488.609 269.542 488.868 270.942 489.386 272.249C489.916 273.557 490.644 274.71 491.569 275.709C492.506 276.708 493.585 277.491 494.806 278.058C496.039 278.613 497.353 278.891 498.747 278.891C500.35 278.891 501.836 278.527 503.205 277.799C504.586 277.059 505.727 276.097 506.628 274.913L508.922 276.153C507.762 277.769 506.301 279.064 504.537 280.038C502.773 281 500.843 281.481 498.747 281.481ZM517.178 281V255.1H519.768V281H517.178ZM540.663 281.481C538.912 281.481 537.265 281.136 535.723 280.445C534.182 279.742 532.825 278.774 531.653 277.54C530.482 276.307 529.563 274.883 528.897 273.267C528.231 271.639 527.898 269.9 527.898 268.05C527.898 266.2 528.231 264.467 528.897 262.851C529.563 261.223 530.482 259.793 531.653 258.559C532.825 257.326 534.182 256.364 535.723 255.673C537.265 254.97 538.912 254.619 540.663 254.619C542.427 254.619 544.079 254.97 545.621 255.673C547.163 256.364 548.519 257.326 549.691 258.559C550.863 259.793 551.775 261.223 552.429 262.851C553.095 264.467 553.428 266.2 553.428 268.05C553.428 269.9 553.095 271.639 552.429 273.267C551.775 274.883 550.863 276.307 549.691 277.54C548.519 278.774 547.163 279.742 545.621 280.445C544.079 281.136 542.427 281.481 540.663 281.481ZM540.663 278.891C542.081 278.891 543.401 278.607 544.622 278.04C545.855 277.46 546.935 276.671 547.859 275.672C548.797 274.673 549.524 273.52 550.043 272.212C550.573 270.905 550.838 269.518 550.838 268.05C550.838 266.57 550.573 265.176 550.043 263.869C549.512 262.549 548.778 261.396 547.841 260.409C546.916 259.41 545.837 258.627 544.604 258.06C543.383 257.493 542.069 257.209 540.663 257.209C539.245 257.209 537.919 257.499 536.685 258.078C535.464 258.646 534.385 259.429 533.448 260.428C532.523 261.427 531.795 262.58 531.265 263.887C530.747 265.195 530.488 266.582 530.488 268.05C530.488 269.542 530.753 270.942 531.283 272.249C531.814 273.557 532.541 274.71 533.466 275.709C534.404 276.708 535.483 277.491 536.704 278.058C537.937 278.613 539.257 278.891 540.663 278.891ZM561.068 281V255.1H563.88L577.551 276.319V255.1H580.141V281H577.348L563.658 259.78V281H561.068ZM597.152 255.1H600.371L609.806 281H607.049L605.033 275.45H592.508L590.492 281H587.735L597.152 255.1ZM593.452 272.86H604.071L598.761 258.282L593.452 272.86ZM617.147 281V255.1H625.713C627.501 255.1 629.179 255.439 630.745 256.117C632.311 256.783 633.686 257.715 634.87 258.911C636.054 260.095 636.979 261.47 637.645 263.036C638.324 264.59 638.663 266.262 638.663 268.05C638.663 269.838 638.324 271.516 637.645 273.082C636.979 274.636 636.054 276.011 634.87 277.207C633.686 278.391 632.311 279.323 630.745 280.001C629.179 280.667 627.501 281 625.713 281H617.147ZM619.737 278.41H625.713C627.144 278.41 628.482 278.145 629.727 277.614C630.985 277.072 632.089 276.326 633.039 275.376C633.989 274.426 634.729 273.329 635.259 272.083C635.802 270.825 636.073 269.481 636.073 268.05C636.073 266.619 635.802 265.281 635.259 264.035C634.729 262.777 633.982 261.674 633.02 260.724C632.071 259.774 630.973 259.034 629.727 258.504C628.482 257.961 627.144 257.69 625.713 257.69H619.737V278.41ZM657.772 281.481C656.021 281.481 654.375 281.136 652.833 280.445C651.291 279.742 649.935 278.774 648.763 277.54C647.591 276.307 646.672 274.883 646.006 273.267C645.34 271.639 645.007 269.9 645.007 268.05C645.007 266.2 645.34 264.467 646.006 262.851C646.672 261.223 647.591 259.793 648.763 258.559C649.935 257.326 651.291 256.364 652.833 255.673C654.375 254.97 656.021 254.619 657.772 254.619C659.536 254.619 661.189 254.97 662.73 255.673C664.272 256.364 665.629 257.326 666.8 258.559C667.972 259.793 668.885 261.223 669.538 262.851C670.204 264.467 670.537 266.2 670.537 268.05C670.537 269.9 670.204 271.639 669.538 273.267C668.885 274.883 667.972 276.307 666.8 277.54C665.629 278.774 664.272 279.742 662.73 280.445C661.189 281.136 659.536 281.481 657.772 281.481ZM657.772 278.891C659.191 278.891 660.51 278.607 661.731 278.04C662.965 277.46 664.044 276.671 664.969 275.672C665.906 274.673 666.634 273.52 667.152 272.212C667.682 270.905 667.947 269.518 667.947 268.05C667.947 266.57 667.682 265.176 667.152 263.869C666.622 262.549 665.888 261.396 664.95 260.409C664.025 259.41 662.946 258.627 661.713 258.06C660.492 257.493 659.178 257.209 657.772 257.209C656.354 257.209 655.028 257.499 653.795 258.078C652.574 258.646 651.495 259.429 650.557 260.428C649.632 261.427 648.905 262.58 648.374 263.887C647.856 265.195 647.597 266.582 647.597 268.05C647.597 269.542 647.863 270.942 648.393 272.249C648.923 273.557 649.651 274.71 650.576 275.709C651.513 276.708 652.592 277.491 653.813 278.058C655.047 278.613 656.366 278.891 657.772 278.891Z" fill="#EEF3ED"/>
<path d="M2 80C2 74.4772 6.47715 70 12 70V210H2V80Z" fill="#EEF3ED"/>
<rect x="18" y="70" width="10" height="140" fill="#EEF3ED"/>
<rect x="34" y="70" width="10" height="140" fill="#EEF3ED"/>
<path d="M50 70C55.5228 70 60 74.4772 60 80V210H50V70Z" fill="#EEF3ED"/>
<line x1="82" y1="93" x2="672" y2="93.0001" stroke="#EBA944" stroke-width="2"/>
<line x1="82" y1="230" x2="672" y2="230" stroke="#EBA944" stroke-width="2"/>
<path fill-rule="evenodd" clip-rule="evenodd" d="M15.58 56.739C6.8451 51.4947 1 41.93 1 31C1 14.4315 14.4315 1 31 1C47.5685 1 61 14.4315 61 31C61 47.5685 47.5685 61 31 61C25.4039 61 20.1658 59.4678 15.6821 56.8H15.58V56.739ZM29.98 31.96V59.0018C28.1498 58.9363 26.3644 58.6953 24.64 58.2951L24.64 37.06L3.63704 37.06C3.27324 35.4099 3.05489 33.7052 2.99614 31.96H29.98ZM7.40554 46.12C9.52271 49.417 12.312 52.2412 15.58 54.3991L15.58 46.12H7.40554ZM4.15057 39.04C4.68308 40.8209 5.38792 42.5273 6.24575 44.14H17.56L17.56 55.5923C19.1705 56.4743 20.877 57.2028 22.66 57.7579L22.66 39.04L4.15057 39.04ZM31.96 31.96V59.0039C33.6207 58.948 35.2448 58.7475 36.82 58.4148L36.82 37.06L58.363 37.06C58.7268 35.4099 58.9451 33.7052 59.0039 31.96H31.96ZM38.8 39.04L38.8 57.92C40.5792 57.4054 42.2856 56.7192 43.9 55.8804L43.9 44.14H55.7542C56.6121 42.5273 57.3169 40.8209 57.8494 39.04H38.8ZM45.88 46.12V54.7469C49.3811 52.5484 52.3616 49.5971 54.5945 46.12H45.88ZM59.0018 29.98H31.96V2.99614C33.7052 3.05489 35.4099 3.27324 37.06 3.63704V24.88L58.3497 24.88C58.7172 26.5299 58.9393 28.2346 59.0018 29.98ZM39.04 4.15057V22.9H57.8314C57.2944 21.1187 56.5849 19.4123 55.7222 17.8H44.14V6.24575C42.5273 5.38792 40.8209 4.68308 39.04 4.15057ZM46.12 7.40554C49.4974 9.57435 52.3787 12.4485 54.5558 15.82H46.12V7.40554ZM29.98 29.98H2.99822C3.06067 28.2346 3.28277 26.5299 3.65034 24.88L24.88 24.88L24.88 3.65034C26.5299 3.28277 28.2346 3.06067 29.98 2.99822V29.98ZM4.16858 22.9L22.9 22.9L22.9 4.16859C21.1187 4.70559 19.4123 5.41512 17.8 6.27776L17.8 17.8H6.27776C5.41512 19.4123 4.70559 21.1187 4.16858 22.9ZM15.82 7.44417L15.82 15.82L7.44417 15.82C9.60844 12.4685 12.4685 9.60844 15.82 7.44417Z" fill="#EBA944" stroke="#EBA944"/>
</svg>
